<svg width="54" height="99" viewBox="0 0 104 99" fill="none" xmlns="http://www.w3.org/2000/svg">
<path d="M37.7293 2.1302C47.678 5.0319 55.6058 13.3743 63.8446 17.9859C72.0833 22.7012 80.6848 23.6339 88.8717 28.09C97.0068 32.4944 104.779 40.3704 103.38 47.6765C102.033 54.9307 91.4625 61.6668 85.8664 70.5792C80.2703 79.4915 79.5967 90.632 74.2078 95.399C68.8707 100.114 58.8184 98.4562 50.0615 96.0208C41.2528 93.5337 33.7913 90.2174 27.5216 85.3985C21.2 80.5278 16.122 74.2063 11.2513 66.4339C6.32881 58.7133 1.56174 49.5937 0.318152 39.0232C-0.925433 28.4527 1.40629 16.3796 8.5569 9.02173C15.7593 1.71567 27.7806 -0.771499 37.7293 2.1302Z" fill="url(#paint0_linear)"/>
<defs>
<linearGradient id="paint0_linear" x1="-1.78639" y1="-4.1011" x2="93.0425" y2="111.823" gradientUnits="userSpaceOnUse">
<stop stop-color="#EE6737"/>
<stop offset="1" stop-color="#F73C2C"/>
</linearGradient>
</defs>
</svg>
