<svg width="36" height="26" viewBox="0 0 36 26" fill="none" xmlns="http://www.w3.org/2000/svg">
<path d="M1 1V0.25C0.585786 0.25 0.25 0.585786 0.25 1L1 1ZM34.3333 1H35.0833C35.0833 0.585786 34.7476 0.25 34.3333 0.25V1ZM34.3333 24.3333V25.0833C34.7476 25.0833 35.0833 24.7475 35.0833 24.3333H34.3333ZM1 24.3333H0.25C0.25 24.7475 0.585786 25.0833 1 25.0833L1 24.3333ZM17.6667 16L17.1649 16.5575L17.6667 17.009L18.1684 16.5575L17.6667 16ZM1 1.75H34.3333V0.25H1V1.75ZM33.5833 1V24.3333H35.0833V1H33.5833ZM34.3333 23.5833H1V25.0833H34.3333V23.5833ZM1.75 24.3333V1H0.25V24.3333H1.75ZM0.498276 1.55747L17.1649 16.5575L18.1684 15.4425L1.50172 0.442529L0.498276 1.55747ZM18.1684 16.5575L34.8351 1.55747L33.8316 0.442529L17.1649 15.4425L18.1684 16.5575ZM1.56443 24.8272L13.2311 11.4939L12.1022 10.5061L0.435567 23.8395L1.56443 24.8272ZM34.8978 23.8395L23.2311 10.5061L22.1022 11.4939L33.7689 24.8272L34.8978 23.8395Z" fill="#D64D27"/>
</svg>
