<svg width="33" height="33" viewBox="0 0 33 33" fill="none" xmlns="http://www.w3.org/2000/svg">
<path d="M22.3405 7.14945C24.3205 8.77672 24.745 8.9152 25.675 10.6343C26.5849 12.3366 26.2812 11.2406 27.2937 13.8767C27.6218 16.3539 28.22 19.16 27.2856 21.2093C26.368 23.2386 23.901 24.531 21.3617 25.4214C18.8023 26.295 16.1707 26.7665 13.7164 26.2945C11.262 25.8224 8.98501 24.4067 7.39095 22.523C5.8137 20.6192 5.93099 18.8316 5.36505 16.3939C4.81591 13.9361 4.75878 13.3625 5.66818 10.9375C6.95426 7.5079 7.35093 7.92892 9.30586 6.08733C11.2608 4.24574 14.0634 4.6186 16.581 5.17793C19.0971 5.71884 20.8248 6.39045 22.3405 7.14945Z" fill="url(#paint0_linear)"/>
<defs>
<linearGradient id="paint0_linear" x1="28.2293" y1="26.1337" x2="4.53099" y2="2.35043" gradientUnits="userSpaceOnUse">
<stop stop-color="#EE6637"/>
<stop offset="1" stop-color="#F73C2C"/>
</linearGradient>
</defs>
</svg>
