<svg width="52" height="63" viewBox="0 0 52 63" fill="none" xmlns="http://www.w3.org/2000/svg">
<path d="M0.00249388 36.7253C-0.053855 31.1601 0.847744 29.2862 2.39736 25.3395C3.94697 21.4495 6.11641 15.5153 9.8073 11.5118C13.4418 7.50828 17.2454 2.59619 21.9224 1.29008C26.5431 -0.0160224 32.0935 2.28386 37.0804 5.26519C42.0674 8.3033 46.4908 12.0229 49.1111 16.7646C51.7313 21.5063 52.5484 27.2702 51.6468 32.5514C50.6888 37.8326 48.0122 42.6311 44.7721 46.9754C41.4757 51.3196 37.6721 55.2095 32.7415 58.2476C27.8673 61.2857 21.8661 63.472 16.1184 62.7906C10.3708 62.1091 4.9049 58.5883 2.341 53.6195C-0.25108 48.679 0.115192 42.2904 0.00249388 36.7253Z" fill="url(#paint0_linear)"/>
<defs>
<linearGradient id="paint0_linear" x1="26" y1="-8.65219" x2="17.7914" y2="77.3587" gradientUnits="userSpaceOnUse">
<stop stop-color="#F73C2C"/>
<stop offset="1" stop-color="#EE6737"/>
</linearGradient>
</defs>
</svg>
