<svg width="62" height="61" viewBox="0 0 62 61" fill="none" xmlns="http://www.w3.org/2000/svg">
<path d="M40.8235 12.7886C44.0894 15.4727 44.7362 16.9163 46.2701 19.7519C47.7711 22.5598 50.1565 26.7292 50.67 30.8481C51.2112 34.934 52.1978 39.5627 50.6566 42.9428C49.143 46.29 45.0738 48.4218 40.8854 49.8904C36.6639 51.3313 32.3232 52.1091 28.2749 51.3305C24.2267 50.5518 20.4708 48.2168 17.8415 45.1096C15.2399 41.9694 13.7648 38.0571 12.8314 34.0361C11.9256 29.9821 11.5337 25.8526 12.1919 21.4781C12.8224 17.1366 14.5031 12.5502 17.7276 9.51257C20.9521 6.47498 25.6901 4.98888 29.8429 5.91146C33.9929 6.80365 37.5299 10.1376 40.8235 12.7886Z" fill="url(#paint0_linear)"/>
<defs>
<linearGradient id="paint0_linear" x1="54.4353" y1="50.1881" x2="8.35944" y2="3.44825" gradientUnits="userSpaceOnUse">
<stop stop-color="#F73C2C"/>
<stop offset="1" stop-color="#EE6737"/>
</linearGradient>
</defs>
</svg>
